<?xml version="1.0" encoding="UTF-8"?>
<svg width="1200pt" height="1200pt" version="1.1" viewBox="0 0 1200 1200" xmlns="http://www.w3.org/2000/svg">
 <g>
  <path d="m372 960h456c35.008 0 68.582-13.906 93.34-38.66 24.754-24.758 38.66-58.332 38.66-93.34v-456c0-35.008-13.906-68.582-38.66-93.34-24.758-24.754-58.332-38.66-93.34-38.66h-456c-35.008 0-68.582 13.906-93.34 38.66-24.754 24.758-38.66 58.332-38.66 93.34v456c0 35.008 13.906 68.582 38.66 93.34 24.758 24.754 58.332 38.66 93.34 38.66zm-60-588c0-15.914 6.3203-31.176 17.574-42.426 11.25-11.254 26.512-17.574 42.426-17.574h456c15.914 0 31.176 6.3203 42.426 17.574 11.254 11.25 17.574 26.512 17.574 42.426v456c0 15.914-6.3203 31.176-17.574 42.426-11.25 11.254-26.512 17.574-42.426 17.574h-456c-15.914 0-31.176-6.3203-42.426-17.574-11.254-11.25-17.574-26.512-17.574-42.426z"/>
  <path d="m600 780c41.375 0 81.055-16.438 110.31-45.691s45.691-68.934 45.691-110.31-16.438-81.055-45.691-110.31-68.934-45.691-110.31-45.691-81.055 16.438-110.31 45.691-45.691 68.934-45.691 110.31 16.438 81.055 45.691 110.31 68.934 45.691 110.31 45.691zm0-240c22.277 0 43.645 8.8516 59.398 24.602 15.75 15.754 24.602 37.121 24.602 59.398s-8.8516 43.645-24.602 59.398c-15.754 15.75-37.121 24.602-59.398 24.602s-43.645-8.8516-59.398-24.602c-15.75-15.754-24.602-37.121-24.602-59.398s8.8516-43.645 24.602-59.398c15.754-15.75 37.121-24.602 59.398-24.602z"/>
  <path d="m816 414c0 23.195-18.805 42-42 42s-42-18.805-42-42 18.805-42 42-42 42 18.805 42 42"/>
 </g>
</svg>
